# xmcd
#
# Track frame offsets:
#	182
#	16642
#	37055
#	54225
#	71190
#	86722
#	105335
#	118287
#	134717
#	150677
#	163357
#	174017
#	185870
#	201517
#
# Disc length: 2939 seconds
#
# Revision: 0
# Processed by: cddbd v1.5.1PL0 Copyright (c) Steve Scherf et al.
# Submitted via: dBpowerAMP V4.0
#
DISCID=ca0b790e
DTITLE=The Hot Biscuit Band - Valiant
DYEAR=1997
DGENRE=R&B
TTITLE0=Desperate Man
TTITLE1=Next time the blue comes around
TTITLE2=oil on the water
TTITLE3=last time
TTITLE4=wheels of time
TTITLE5=eye of the storm
TTITLE6=end of the line
TTITLE7=oh well
TTITLE8=give me the truth
TTITLE9=feels like the whole worlds got the blues
TTITLE10=thats the way the world goes around
TTITLE11=road to the cross
TTITLE12=nullarbor dust
TTITLE13=forvever young
EXTD=Valiant Hot Biscuit Band
EXTT0=
EXTT1=
EXTT2=
EXTT3=
EXTT4=
EXTT5=
EXTT6=
EXTT7=
EXTT8=
EXTT9=
EXTT10=
EXTT11=
EXTT12=
EXTT13=
PLAYORDER=
